<svg xmlns="http://www.w3.org/2000/svg" version="1.1" xmlns:xlink="http://www.w3.org/1999/xlink" xmlns:svgjs="http://svgjs.dev/svgjs" width="1440" height="560" preserveAspectRatio="none" viewBox="0 0 1440 560"><g mask="url(&quot;#SvgjsMask1015&quot;)" fill="none"><path d="M-47.99 225.59C151.02 228.06 411.05 449.24 714.3 455.19 1017.56 461.14 990.58 627.03 1095.45 631.21" stroke="rgba(0, 0, 0, 1)" stroke-width="2"></path><path d="M-280.54 326.93C-139.5 326.07-16.75 195.12 268.74 198.13 554.23 201.14 643.89 612.89 818.02 639.01" stroke="rgba(0, 0, 0, 1)" stroke-width="2"></path><path d="M-39.7 522.1C74.4 516.75 162.53 320.04 370.33 320.5 578.13 320.96 649.24 637.13 780.36 657.86" stroke="rgba(0, 0, 0, 1)" stroke-width="2"></path><path d="M-141.74 294.06C-28.22 294.27 82.59 364.06 306.92 364.06 531.25 364.06 518.67 289.93 755.58 294.06 992.49 298.19 1059.96 645.55 1204.24 669.14" stroke="rgba(0, 0, 0, 1)" stroke-width="2"></path><path d="M-90.88 409.48C28.97 409.67 146.25 479.48 383.37 479.48 620.5 479.48 616.33 408.7 857.63 409.48 1098.92 410.26 1198.22 650.71 1331.88 658.1" stroke="rgba(0, 0, 0, 1)" stroke-width="2"></path></g><defs><mask id="SvgjsMask1015"><rect width="1440" height="560" fill="#ffffff"></rect></mask></defs></svg>